<mxfile host="app.diagrams.net" modified="2021-08-30T03:32:56.621Z" agent="5.0 (Macintosh; Intel Mac OS X 10_16_0) AppleWebKit/537.36 (KHTML, like Gecko) Chrome/80.0.3987.132 Safari/537.36" etag="xGU4y3V0_212f9yifJBP" version="14.9.8" type="github">
  <diagram id="FB1ySnF5XsnlFVpifoGI" name="Page-1">
    <mxGraphModel dx="1426" dy="769" grid="1" gridSize="10" guides="1" tooltips="1" connect="1" arrows="1" fold="1" page="1" pageScale="1" pageWidth="850" pageHeight="1100" math="0" shadow="0">
      <root>
        <mxCell id="0" />
        <mxCell id="1" parent="0" />
        <mxCell id="Tj2pB22FIySYVLev_0by-1" value="" style="rounded=1;whiteSpace=wrap;html=1;arcSize=4;fillColor=none;" parent="1" vertex="1">
          <mxGeometry x="430" y="770" width="960" height="160" as="geometry" />
        </mxCell>
        <mxCell id="Tj2pB22FIySYVLev_0by-2" value="" style="rounded=1;whiteSpace=wrap;html=1;arcSize=5;fillColor=none;" parent="1" vertex="1">
          <mxGeometry x="430" y="530" width="960" height="190" as="geometry" />
        </mxCell>
        <mxCell id="Tj2pB22FIySYVLev_0by-4" value="质测平台" style="swimlane;html=1;horizontal=0;startSize=20;rounded=1;strokeWidth=2;fillColor=#FFF5EF;" parent="1" vertex="1">
          <mxGeometry x="430" y="330" width="960" height="160" as="geometry" />
        </mxCell>
        <mxCell id="380s1hPce3NLp7Bm5XNi-3" value="配置表" style="shape=cylinder3;whiteSpace=wrap;html=1;boundedLbl=1;backgroundOutline=1;size=15;strokeWidth=2;fillColor=#F9AE8F;" parent="Tj2pB22FIySYVLev_0by-4" vertex="1">
          <mxGeometry x="710" y="40" width="60" height="80" as="geometry" />
        </mxCell>
        <mxCell id="380s1hPce3NLp7Bm5XNi-15" value="" style="edgeStyle=orthogonalEdgeStyle;rounded=0;orthogonalLoop=1;jettySize=auto;html=1;strokeWidth=2;" parent="Tj2pB22FIySYVLev_0by-4" source="Tj2pB22FIySYVLev_0by-23" target="380s1hPce3NLp7Bm5XNi-14" edge="1">
          <mxGeometry relative="1" as="geometry" />
        </mxCell>
        <mxCell id="Tj2pB22FIySYVLev_0by-23" value="Jenkins API" style="shape=ext;rounded=1;html=1;whiteSpace=wrap;fontFamily=Helvetica;fontSize=12;fontColor=#000000;align=center;strokeColor=#000000;strokeWidth=2;fillColor=#F9AE8F;" parent="Tj2pB22FIySYVLev_0by-4" vertex="1">
          <mxGeometry x="381.5" y="20" width="95" height="50" as="geometry" />
        </mxCell>
        <mxCell id="380s1hPce3NLp7Bm5XNi-17" value="" style="edgeStyle=orthogonalEdgeStyle;rounded=0;orthogonalLoop=1;jettySize=auto;html=1;strokeWidth=2;" parent="Tj2pB22FIySYVLev_0by-4" source="Tj2pB22FIySYVLev_0by-25" target="380s1hPce3NLp7Bm5XNi-16" edge="1">
          <mxGeometry relative="1" as="geometry" />
        </mxCell>
        <mxCell id="Tj2pB22FIySYVLev_0by-25" value="GitLab API" style="shape=ext;rounded=1;html=1;whiteSpace=wrap;fontFamily=Helvetica;fontSize=12;fontColor=#000000;align=center;strokeColor=#000000;strokeWidth=2;fillColor=#F9AE8F;" parent="Tj2pB22FIySYVLev_0by-4" vertex="1">
          <mxGeometry x="381.5" y="100" width="95" height="50" as="geometry" />
        </mxCell>
        <mxCell id="Tj2pB22FIySYVLev_0by-19" value="流水线配置" style="shape=ext;rounded=1;html=1;whiteSpace=wrap;fontFamily=Helvetica;fontSize=12;fontColor=#000000;align=center;strokeColor=#000000;strokeWidth=2;fillColor=#F9AE8F;" parent="Tj2pB22FIySYVLev_0by-4" vertex="1">
          <mxGeometry x="160" y="55" width="95" height="50" as="geometry" />
        </mxCell>
        <mxCell id="Tj2pB22FIySYVLev_0by-18" value="" style="edgeStyle=orthogonalEdgeStyle;rounded=0;orthogonalLoop=1;jettySize=auto;html=1;strokeWidth=2;endArrow=open;endFill=0;" parent="Tj2pB22FIySYVLev_0by-4" source="Tj2pB22FIySYVLev_0by-19" target="Tj2pB22FIySYVLev_0by-23" edge="1">
          <mxGeometry relative="1" as="geometry" />
        </mxCell>
        <mxCell id="380s1hPce3NLp7Bm5XNi-4" value="" style="edgeStyle=orthogonalEdgeStyle;rounded=0;orthogonalLoop=1;jettySize=auto;html=1;strokeWidth=2;" parent="Tj2pB22FIySYVLev_0by-4" source="Tj2pB22FIySYVLev_0by-19" target="Tj2pB22FIySYVLev_0by-25" edge="1">
          <mxGeometry relative="1" as="geometry" />
        </mxCell>
        <mxCell id="380s1hPce3NLp7Bm5XNi-5" value="MR质量数据表" style="shape=cylinder3;whiteSpace=wrap;html=1;boundedLbl=1;backgroundOutline=1;size=15;strokeWidth=2;fillColor=#F9AE8F;" parent="Tj2pB22FIySYVLev_0by-4" vertex="1">
          <mxGeometry x="820" y="40" width="60" height="80" as="geometry" />
        </mxCell>
        <mxCell id="380s1hPce3NLp7Bm5XNi-14" value="创建仓库唯一流水线Job" style="shape=ext;rounded=1;html=1;whiteSpace=wrap;fontFamily=Helvetica;fontSize=12;fontColor=#000000;align=center;strokeColor=#000000;strokeWidth=2;fillColor=#F9AE8F;" parent="Tj2pB22FIySYVLev_0by-4" vertex="1">
          <mxGeometry x="556.5" y="20" width="95" height="50" as="geometry" />
        </mxCell>
        <mxCell id="380s1hPce3NLp7Bm5XNi-16" value="对仓库进行基础配置" style="shape=ext;rounded=1;html=1;whiteSpace=wrap;fontFamily=Helvetica;fontSize=12;fontColor=#000000;align=center;strokeColor=#000000;strokeWidth=2;fillColor=#F9AE8F;" parent="Tj2pB22FIySYVLev_0by-4" vertex="1">
          <mxGeometry x="556.5" y="100" width="95" height="50" as="geometry" />
        </mxCell>
        <mxCell id="Tj2pB22FIySYVLev_0by-7" value="Jenkins / GitLab" style="swimlane;html=1;horizontal=0;startSize=20;rounded=1;strokeWidth=2;fillColor=#FFF5EF;" parent="1" vertex="1">
          <mxGeometry x="430" y="530" width="960" height="190" as="geometry" />
        </mxCell>
        <mxCell id="Tj2pB22FIySYVLev_0by-8" style="edgeStyle=orthogonalEdgeStyle;rounded=0;orthogonalLoop=1;jettySize=auto;html=1;exitX=1;exitY=0.5;exitDx=0;exitDy=0;entryX=0;entryY=0.5;entryDx=0;entryDy=0;strokeWidth=2;endArrow=open;endFill=0;" parent="Tj2pB22FIySYVLev_0by-7" target="Tj2pB22FIySYVLev_0by-11" edge="1">
          <mxGeometry relative="1" as="geometry">
            <mxPoint x="100" y="95" as="sourcePoint" />
          </mxGeometry>
        </mxCell>
        <mxCell id="380s1hPce3NLp7Bm5XNi-8" value="WebHook" style="edgeLabel;html=1;align=center;verticalAlign=middle;resizable=0;points=[];" parent="Tj2pB22FIySYVLev_0by-8" vertex="1" connectable="0">
          <mxGeometry y="2" relative="1" as="geometry">
            <mxPoint x="-15" y="2" as="offset" />
          </mxGeometry>
        </mxCell>
        <mxCell id="Tj2pB22FIySYVLev_0by-11" value="" style="shape=ext;rounded=1;html=1;whiteSpace=wrap;strokeWidth=2;fillColor=#FFF5EF;" parent="Tj2pB22FIySYVLev_0by-7" vertex="1">
          <mxGeometry x="190" y="20" width="660" height="150" as="geometry" />
        </mxCell>
        <mxCell id="Tj2pB22FIySYVLev_0by-13" value="Jenkins Pipeline Job" style="shape=mxgraph.bpmn.shape;html=1;verticalLabelPosition=bottom;labelBackgroundColor=#ffffff;verticalAlign=top;align=center;perimeter=ellipsePerimeter;outlineConnect=0;outline=standard;symbol=general;rounded=1;strokeWidth=2;fillColor=#F08E81;" parent="Tj2pB22FIySYVLev_0by-7" vertex="1">
          <mxGeometry x="230" y="40" width="40" height="40" as="geometry" />
        </mxCell>
        <mxCell id="Tj2pB22FIySYVLev_0by-30" value="" style="edgeStyle=orthogonalEdgeStyle;rounded=0;orthogonalLoop=1;jettySize=auto;html=1;strokeWidth=2;endArrow=open;endFill=0;" parent="Tj2pB22FIySYVLev_0by-7" source="Tj2pB22FIySYVLev_0by-13" target="Tj2pB22FIySYVLev_0by-37" edge="1">
          <mxGeometry relative="1" as="geometry">
            <mxPoint x="309" y="60" as="targetPoint" />
          </mxGeometry>
        </mxCell>
        <mxCell id="Tj2pB22FIySYVLev_0by-37" value="是否存在匹配Slave" style="shape=ext;rounded=1;html=1;whiteSpace=wrap;fontFamily=Helvetica;fontSize=12;fontColor=#000000;align=center;strokeColor=#000000;strokeWidth=2;fillColor=#F9AE8F;" parent="Tj2pB22FIySYVLev_0by-7" vertex="1">
          <mxGeometry x="380" y="40" width="140" height="40" as="geometry" />
        </mxCell>
        <mxCell id="Tj2pB22FIySYVLev_0by-36" value="No" style="edgeStyle=orthogonalEdgeStyle;rounded=0;orthogonalLoop=1;jettySize=auto;html=1;exitX=0.5;exitY=1;exitDx=0;exitDy=0;entryX=0.5;entryY=0;entryDx=0;entryDy=0;strokeWidth=2;endArrow=open;endFill=0;labelBackgroundColor=none;" parent="Tj2pB22FIySYVLev_0by-7" source="Tj2pB22FIySYVLev_0by-37" edge="1">
          <mxGeometry x="-0.2308" y="10" relative="1" as="geometry">
            <mxPoint as="offset" />
            <mxPoint x="540" y="110" as="targetPoint" />
          </mxGeometry>
        </mxCell>
        <mxCell id="380s1hPce3NLp7Bm5XNi-13" value="" style="edgeStyle=orthogonalEdgeStyle;rounded=0;orthogonalLoop=1;jettySize=auto;html=1;strokeWidth=2;" parent="Tj2pB22FIySYVLev_0by-7" source="380s1hPce3NLp7Bm5XNi-11" target="380s1hPce3NLp7Bm5XNi-12" edge="1">
          <mxGeometry relative="1" as="geometry" />
        </mxCell>
        <mxCell id="380s1hPce3NLp7Bm5XNi-11" value="Kubernetes 插件" style="shape=ext;rounded=1;html=1;whiteSpace=wrap;fontFamily=Helvetica;fontSize=12;fontColor=#000000;align=center;strokeColor=#000000;strokeWidth=2;fillColor=#F9AE8F;" parent="Tj2pB22FIySYVLev_0by-7" vertex="1">
          <mxGeometry x="490" y="110" width="80" height="40" as="geometry" />
        </mxCell>
        <mxCell id="380s1hPce3NLp7Bm5XNi-12" value="创建Slave并调度" style="shape=ext;rounded=1;html=1;whiteSpace=wrap;fontFamily=Helvetica;fontSize=12;fontColor=#000000;align=center;strokeColor=#000000;strokeWidth=2;fillColor=#F9AE8F;" parent="Tj2pB22FIySYVLev_0by-7" vertex="1">
          <mxGeometry x="330" y="110" width="80" height="40" as="geometry" />
        </mxCell>
        <mxCell id="Tj2pB22FIySYVLev_0by-16" value="Pipeline" style="swimlane;html=1;horizontal=0;startSize=20;rounded=1;strokeWidth=2;fillColor=#FFF5EF;" parent="1" vertex="1">
          <mxGeometry x="430" y="770" width="960" height="160" as="geometry" />
        </mxCell>
        <mxCell id="Tj2pB22FIySYVLev_0by-34" value="" style="edgeStyle=orthogonalEdgeStyle;rounded=0;orthogonalLoop=1;jettySize=auto;html=1;strokeWidth=2;endArrow=open;endFill=0;labelBackgroundColor=none;" parent="1" source="Tj2pB22FIySYVLev_0by-37" target="Tj2pB22FIySYVLev_0by-39" edge="1">
          <mxGeometry relative="1" as="geometry" />
        </mxCell>
        <mxCell id="Tj2pB22FIySYVLev_0by-35" value="Yes" style="edgeLabel;html=1;align=center;verticalAlign=middle;resizable=0;points=[];labelBackgroundColor=none;" parent="Tj2pB22FIySYVLev_0by-34" vertex="1" connectable="0">
          <mxGeometry x="0.0237" relative="1" as="geometry">
            <mxPoint x="1" y="-10.06" as="offset" />
          </mxGeometry>
        </mxCell>
        <mxCell id="Tj2pB22FIySYVLev_0by-39" value="分配调度Slave" style="shape=ext;rounded=1;html=1;whiteSpace=wrap;fontFamily=Helvetica;fontSize=12;fontColor=#000000;align=center;strokeColor=#000000;strokeWidth=2;fillColor=#F9AE8F;" parent="1" vertex="1">
          <mxGeometry x="1047" y="570" width="80" height="40" as="geometry" />
        </mxCell>
        <mxCell id="Tj2pB22FIySYVLev_0by-40" style="edgeStyle=orthogonalEdgeStyle;rounded=0;orthogonalLoop=1;jettySize=auto;html=1;entryX=0.5;entryY=1;entryDx=0;entryDy=0;strokeWidth=2;endArrow=open;endFill=0;exitX=1;exitY=0.5;exitDx=0;exitDy=0;" parent="1" source="380s1hPce3NLp7Bm5XNi-11" target="Tj2pB22FIySYVLev_0by-39" edge="1">
          <mxGeometry relative="1" as="geometry">
            <mxPoint x="1010" y="660" as="sourcePoint" />
          </mxGeometry>
        </mxCell>
        <mxCell id="Tj2pB22FIySYVLev_0by-45" value="" style="edgeStyle=orthogonalEdgeStyle;rounded=0;orthogonalLoop=1;jettySize=auto;html=1;strokeWidth=2;endArrow=open;endFill=0;" parent="1" source="Tj2pB22FIySYVLev_0by-46" target="Tj2pB22FIySYVLev_0by-51" edge="1">
          <mxGeometry relative="1" as="geometry" />
        </mxCell>
        <mxCell id="Tj2pB22FIySYVLev_0by-46" value="拉取Groovy Library 库" style="shape=ext;rounded=1;html=1;whiteSpace=wrap;fontFamily=Helvetica;fontSize=12;fontColor=#000000;align=center;strokeColor=#000000;strokeWidth=2;fillColor=#F9AE8F;" parent="1" vertex="1">
          <mxGeometry x="580" y="825" width="139" height="50" as="geometry" />
        </mxCell>
        <mxCell id="Tj2pB22FIySYVLev_0by-51" value="执行具体 流水线" style="shape=ext;rounded=1;html=1;whiteSpace=wrap;fontFamily=Helvetica;fontSize=12;fontColor=#000000;align=center;strokeColor=#000000;strokeWidth=2;fillColor=#F9AE8F;" parent="1" vertex="1">
          <mxGeometry x="791" y="825" width="95" height="50" as="geometry" />
        </mxCell>
        <mxCell id="Tj2pB22FIySYVLev_0by-54" value="" style="shape=note;whiteSpace=wrap;html=1;backgroundOutline=1;darkOpacity=0.05;size=11;labelPosition=left;verticalLabelPosition=middle;align=right;verticalAlign=middle;spacingRight=10;strokeWidth=2;fillColor=#4F817D;" parent="1" vertex="1">
          <mxGeometry x="480" y="595" width="48" height="60" as="geometry" />
        </mxCell>
        <mxCell id="380s1hPce3NLp7Bm5XNi-7" value="MR创建/变更" style="text;html=1;resizable=0;autosize=1;align=center;verticalAlign=middle;points=[];fillColor=none;strokeColor=none;rounded=0;" parent="1" vertex="1">
          <mxGeometry x="455" y="560" width="90" height="20" as="geometry" />
        </mxCell>
      </root>
    </mxGraphModel>
  </diagram>
</mxfile>
